<svg xmlns="http://www.w3.org/2000/svg" id="Layer_1" enable-background="new 0 0 128 128" version="1.1" viewBox="0 0 128 128" xml:space="preserve"><circle cx="64" cy="64" r="60" fill="#382673"/><circle cx="64" cy="64" r="50" fill="#473080"/><rect width="77" height="22" x="26" y="35" fill="#fff"/><rect width="11" height="11" x="26" y="46" fill="#382673" opacity=".2"/><rect width="11" height="11" x="37" y="35" fill="#382673" opacity=".2"/><rect width="11" height="11" x="48" y="46" fill="#382673" opacity=".2"/><rect width="11" height="11" x="59" y="35" fill="#382673" opacity=".2"/><rect width="11" height="11" x="70" y="46" fill="#382673" opacity=".2"/><rect width="11" height="11" x="81" y="35" fill="#382673" opacity=".2"/><rect width="11" height="11" x="92" y="46" fill="#382673" opacity=".2"/><path fill="#fec632" d="M104 31c-1.1 0-2 .9-2 2v77.4c1.4-1.1 2.7-2.3 4-3.6V33C106 31.9 105.1 31 104 31zM25 31c-1.1 0-2 .9-2 2v74.8c1.3 1.2 2.6 2.3 4 3.4V33C27 31.9 26.1 31 25 31z"/><circle cx="104" cy="31" r="4" fill="#ffde39"/><circle cx="25" cy="31" r="4" fill="#ffde39"/><rect width="10" height="9" x="45" y="81" fill="#d44a90"/><polygon fill="#a72973" points="52 96 45 90.2 45 81 52 86.8"/><rect width="25" height="9" x="27" y="87" fill="#f15a9e"/><rect width="10" height="9" x="74" y="81" fill="#d44a90" transform="rotate(-180 79 85.5)"/><polygon fill="#a72973" points="77 96 84 90.2 84 81 77 86.8"/><rect width="25" height="9" x="77" y="87" fill="#f15a9e" transform="rotate(-180 89.5 91.5)"/><line x1="64" x2="64" y1="76.1" y2="71.1" fill="none" stroke="#fff" stroke-linecap="round" stroke-miterlimit="10" stroke-width="2"/><line x1="58.7" x2="58.7" y1="77.1" y2="74.2" fill="none" stroke="#fff" stroke-linecap="round" stroke-miterlimit="10" stroke-width="2"/><line x1="69.3" x2="69.3" y1="77.1" y2="74.2" fill="none" stroke="#fff" stroke-linecap="round" stroke-miterlimit="10" stroke-width="2"/></svg>