<svg xmlns="http://www.w3.org/2000/svg" id="Layer_1" enable-background="new 0 0 128 128" version="1.1" viewBox="0 0 128 128" xml:space="preserve"><circle cx="64" cy="64" r="60" fill="#382673"/><circle cx="64" cy="64" r="50" fill="#473080"/><path fill="#ffde39" d="M74.4,40.5c-0.3,2-0.8,4.9-3.2,7.6c-0.7-8.2-6.7-18.3-13.2-21.3C56,36,45.5,43.9,43.7,54.8  c-1.8,10.9,5.7,21.2,16.6,22.9c10.9,1.8,21.2-5.7,22.9-16.6C84.5,53.2,80.2,43.8,74.4,40.5z"/><path fill="#fec632" d="M57.8,75L57.8,75c-5.6-3-7.7-10-4.7-15.7c1.4-3,3-7.6,3.3-10.3c3.1,0.2,8.1,2.4,12.3,5.7  c4.2,3.3,7.7,10,4.7,15.7l0,0C70.5,76,63.4,78.1,57.8,75z"/><path fill="none" stroke="#00a58c" stroke-linecap="round" stroke-linejoin="round" stroke-miterlimit="10" stroke-width="2" d="M23 72c0 0 3 16 20 29M105 72c0 0-3 16-20 29"/><path fill="#f9a74e" d="M68.6,69.8c-0.3,3.3-3.6,5.5-6.9,5c-3.3-0.5-5.8-3.7-5-6.9c1.2-4.9,7.4-7.9,7.4-7.9S69,66,68.6,69.8z"/><path fill="#00c2a9" d="M38.3 88c0 .1 2.8 2 3.2 4.2.4 2.3-2.1 4.3-2.2 4.3 0 .1-3.6-2.1-3.8-4.6C35.4 89.5 38.4 88 38.3 88zM38.6 97.5c0 0-1.2 3.1-3.9 3-2.8-.2-5.6-4.1-5.6-4.1 0 0 1.7-2.8 4.3-2.4C35.9 94.4 38.5 97.5 38.6 97.5zM33.9 82c0 .1 2.4 2.5 2.3 4.8-.1 2.3-3 3.8-3 3.8 0 .1-3.1-2.7-2.8-5.3C30.7 82.9 33.9 82.1 33.9 82zM32.3 91.5c0 0-1.8 2.8-4.4 2.1-2.7-.7-4.7-5.2-4.7-5.2 0 0 2.3-2.4 4.7-1.5C30.2 87.9 32.2 91.5 32.3 91.5zM30.7 75.2c0 .1 1.8 3 1.3 5.2-.5 2.3-3.7 3.2-3.7 3.1 0 .1-2.5-3.4-1.7-5.8C27.4 75.5 30.7 75.3 30.7 75.2zM22.7 66.9c0 0 2.9 2.1 3.5 4.7.5 2.6-1.3 5.6-1.3 5.6 0 0-3.4-1.4-4.1-4.5C20.1 69.7 22.7 66.9 22.7 66.9zM27.2 84.2c0 0-2.3 2.4-4.7 1.2-2.5-1.3-3.6-6.1-3.6-6.1 0 0 2.7-1.9 4.9-.5C25.9 80.3 27.2 84.2 27.2 84.2zM98.8 96.4c.1 0-2.8 3.9-5.6 4.1-2.7.2-3.9-3-3.9-3 .1 0 2.7-3.1 5.2-3.5C97.1 93.6 98.9 96.4 98.8 96.4zM88.6 96.5c0 0-2.5-2-2.2-4.3.4-2.2 3.2-4.2 3.2-4.2 0 0 2.9 1.5 2.8 4C92.2 94.5 88.6 96.6 88.6 96.5zM104.8 88.5c.1 0-2 4.4-4.7 5.2-2.6.7-4.4-2.2-4.4-2.1.1 0 2-3.6 4.4-4.5C102.5 86.1 104.8 88.4 104.8 88.5zM94.8 90.7c0 0-2.9-1.5-3-3.8-.1-2.3 2.3-4.7 2.3-4.8 0 0 3.2.9 3.5 3.3C97.9 87.9 94.8 90.7 94.8 90.7zM109 79.4c.1 0-1.1 4.8-3.6 6.1-2.4 1.2-4.7-1.2-4.7-1.2.1 0 1.3-3.9 3.4-5.4C106.3 77.4 109 79.3 109 79.4zM105.4 66.9c0 0 2.5 2.8 1.9 5.9-.7 3.1-4.1 4.5-4.1 4.5 0 0-1.8-3-1.3-5.6C102.5 69.1 105.4 67 105.4 66.9zM99.6 83.6c0 0-3.2-.9-3.7-3.1-.5-2.2 1.3-5.2 1.3-5.2 0 0 3.3.2 4.1 2.6C102.2 80.3 99.6 83.7 99.6 83.6z"/><path fill="#fff" d="M84,82H44v-6c0-2.2,1.8-4,4-4h32c2.2,0,4,1.8,4,4V82z"/><path fill="#382673" d="M80,72h-5c2.2,0,4,1.8,4,4v6h5v-6C84,73.8,82.2,72,80,72z" opacity=".2"/><path fill="#0cafe8" d="M76.3,94H51.7c-1.6,0-3.1-1-3.7-2.5L44,82h40l-4,9.5C79.4,93,77.9,94,76.3,94z"/><path fill="#0b90d3" d="M79 82l-4 9.5C74.4 93 72.9 94 71.3 94h5c1.6 0 3.1-1 3.7-2.5l4-9.5H79zM55.9 123.5c2.7.4 5.4.6 8.1.6s5.4-.2 8.1-.6L74 94H54L55.9 123.5z"/><path fill="#007bc6" d="M70,123.7c0.7-0.1,1.4-0.2,2.1-0.3L74,94h-3L70,123.7z"/><polygon fill="#007bc6" points="54.3 98 73.7 98 74 94 54 94"/><circle cx="74" cy="30" r="2" fill="#f9a74e"/><circle cx="65" cy="20" r="2" fill="#fec632"/></svg>