<svg xmlns="http://www.w3.org/2000/svg" id="Layer_1" enable-background="new 0 0 128 128" version="1.1" viewBox="0 0 128 128" xml:space="preserve"><circle cx="64" cy="64" r="60" fill="#382673"/><circle cx="64" cy="64" r="50" fill="#473080"/><polygon fill="#d44a90" points="68 20 81 20 77 27 81 34 68 34"/><polygon fill="#a72973" points="68 20 71 24 71 25 68 25"/><rect width="15" height="14" x="56" y="24" fill="#f15a9e" transform="rotate(-180 63.5 31)"/><path fill="#fec632" d="M7.5,84.1c2.2,6.2,5.4,11.8,9.3,16.9h22.1L18,68L7.5,84.1z"/><polygon fill="#f9a74e" points="18 68 30.1 101 38.8 101"/><path fill="#f9a74e" d="M115.6,94.6L92.8,58.5L65,101h46.2C112.8,99,114.3,96.9,115.6,94.6z"/><line x1="56" x2="56" y1="48" y2="24" fill="none" stroke="#f9a74e" stroke-linecap="round" stroke-linejoin="round" stroke-miterlimit="10" stroke-width="2"/><path fill="#382673" d="M92.8,58.5l15.6,42.5h2.8c1.6-2,3-4.1,4.4-6.4L92.8,58.5z" opacity=".2"/><ellipse cx="89" cy="103.5" fill="#00c2a9" rx="14" ry="9.5"/><polygon fill="#ffde39" points="56.2 44 18.9 101 92.1 101"/><polygon fill="#fec632" points="56.2 44 77.1 101 92.1 101"/><ellipse cx="40" cy="102.9" fill="#00c2a9" rx="12" ry="8.1"/><polygon fill="#fff" points="65.7 70 72.5 75.6 72.5 69.9 72.5 69.9 56.2 44 40.5 68 46.8 75 53.8 70 60.5 83.1"/><polygon fill="#382673" points="72.5 75.6 72.5 69.9 56.2 44 65.7 70" opacity=".2"/><polygon fill="#fff" points="92 74 100.6 79.8 103.5 75.6 92.8 58.5 81.6 75.6 87 78"/><polygon fill="#382673" points="100.6 79.8 103.5 75.6 92.8 58.5" opacity=".2"/><polygon fill="#fff" points="25.4 79.8 18 68 12.5 76.5 12.5 76.5 16.8 80.5 21.6 77.6"/><polygon fill="#382673" points="21.6 77.6 25.4 79.8 18 68" opacity=".2"/><path fill="#00a58c" d="M111.2,101H16.8c11,14,28,23,47.2,23S100.2,115,111.2,101z"/></svg>