<svg xmlns="http://www.w3.org/2000/svg" id="Layer_1" enable-background="new 0 0 128 128" version="1.1" viewBox="0 0 128 128" xml:space="preserve"><circle cx="64" cy="64" r="60" fill="#382673"/><circle cx="64" cy="64" r="50" fill="#473080"/><path fill="#ffde39" d="M124.1,64c0-12.6-3.9-24.3-10.6-34H97c-4.7,0-9,1.9-12,5H11.4c-4.8,8.6-7.5,18.5-7.5,29s2.7,20.4,7.5,29h70.1  c9.2,0,17.9,4.1,23.8,11.1l1.6,1.9C117.5,95.2,124.1,80.3,124.1,64z"/><path fill="#fec632" d="M86,80.7v-3c0.6-0.3,1-1,1-1.7V66c0-0.7-0.4-1.4-1-1.7v-5.4c0.2,0.1,0.4,0.1,0.7,0.1c0.2,0,0.3,0,0.4-0.1  c0.1,0,0.2-0.1,0.4-0.2c0,0,0,0,0,0c0.3-0.2,0.5-0.6,0.5-1v-6.3c0-0.4-0.2-0.8-0.5-1c0,0,0,0,0,0c-0.1-0.1-0.2-0.2-0.4-0.2  C87,50,86.8,50,86.7,50c-0.2,0-0.5,0-0.7,0.1v-2.8c0-3.5-2.8-6.3-6.3-6.3h0.5c0-0.8-0.5-1.5-1.2-1.8V35H51v4c-1,0.1-1.8,1-1.8,2h1.2  c-3.5,0-6.3,2.8-6.3,6.3v33.3c0,3.3,2.6,6,5.8,6.3h-0.6c0,1.1,0.8,1.9,1.8,2v4h28v-4.2c0.7-0.3,1.2-1,1.2-1.8  C83.4,86.7,86,84,86,80.7z"/><path fill="#fff" d="M77.7,87H48.3c-3.5,0-6.3-2.8-6.3-6.3V47.3c0-3.5,2.8-6.3,6.3-6.3h29.3c3.5,0,6.3,2.8,6.3,6.3v33.3   C84,84.2,81.2,87,77.7,87z"/><path fill="#382673" d="M77.7,87H48.3c-3.5,0-6.3-2.8-6.3-6.3V47.3c0-3.5,2.8-6.3,6.3-6.3h29.3c3.5,0,6.3,2.8,6.3,6.3v33.3   C84,84.2,81.2,87,77.7,87z" opacity=".2"/><path fill="#fff" d="M75.7,87H46.3c-3.5,0-6.3-2.8-6.3-6.3V47.3c0-3.5,2.8-6.3,6.3-6.3h29.3c3.5,0,6.3,2.8,6.3,6.3v33.3   C82,84.2,79.2,87,75.7,87z"/><path fill="#473080" d="M46.3,83C45,83,44,82,44,80.7V47.3c0-1.3,1-2.3,2.3-2.3h29.3c1.3,0,2.3,1,2.3,2.3v33.3c0,1.3-1,2.3-2.3,2.3   H46.3z"/><path fill="#382673" d="M45,49.3c0-1.3,1-2.3,2.3-2.3h29.3c0.5,0,0.9,0.2,1.3,0.4v-0.1c0-1.3-1-2.3-2.3-2.3H46.3C45,45,44,46,44,47.3   v33.3c0,0.8,0.4,1.5,1,1.9V49.3z"/><path fill="#0cafe8" d="M75 32H51c-1.1 0-2 .9-2 2v7h28v-7C77 32.9 76.1 32 75 32zM51 96h24c1.1 0 2-.9 2-2v-7H49v7C49 95.1 49.9 96 51 96z"/><path fill="#0b90d3" d="M73,87v7c0,1.1-0.9,2-2,2h4c1.1,0,2-0.9,2-2v-7H73z"/><path fill="#fff" d="M84.7,59L84.7,59c0.7,0,1.3-0.6,1.3-1.3v-6.3c0-0.7-0.6-1.3-1.3-1.3h0c-1.5,0-2.7,1.2-2.7,2.7v3.7   C82,57.8,83.2,59,84.7,59z"/><path fill="#382673" d="M84,56.3v-3.7c0-1,0.6-1.9,1.5-2.4C85.2,50.1,85,50,84.7,50c-1.5,0-2.7,1.2-2.7,2.7v3.7   c0,1.5,1.2,2.7,2.7,2.7c0.3,0,0.6-0.1,0.8-0.3C84.6,58.3,84,57.4,84,56.3z" opacity=".4"/><path fill="#fff" d="M84,78L84,78c1.1,0,2-0.9,2-2V66c0-1.1-0.9-2-2-2l0,0V78z"/><path fill="#0b90d3" d="M78.2 87h-31v0c0 1.1.9 2 2 2h27C77.3 89 78.2 88.1 78.2 87L78.2 87zM75 32h-4c1.1 0 2 .9 2 2v7h4v-7C77 32.9 76.1 32 75 32z"/><path fill="#0cafe8" d="M78.2,41h-31v0c0-1.1,0.9-2,2-2h27C77.3,39,78.2,39.9,78.2,41L78.2,41z"/><path fill="#0b90d3" d="M76.2,39h-3c1.1,0,2,0.9,2,2h3C78.2,39.9,77.3,39,76.2,39z"/><path fill="#007bc6" d="M76.2,89h-3c1.1,0,2-0.9,2-2h3C78.2,88.1,77.3,89,76.2,89z"/><circle cx="61" cy="64.4" r="10.6" fill="#00c2a9" transform="matrix(.03266 -.9995 .9995 .03266 -5.394 123.3)"/><path fill="#fff" d="M60.1,64.9L57.4,62c-0.2-0.2-0.4-0.2-0.6,0l-1.7,1.6c-0.2,0.2-0.2,0.4,0,0.6l4.9,5.3c0.2,0.2,0.4,0.2,0.6,0    l6.8-6.4c0.2-0.2,0.2-0.4,0-0.6l-1.6-1.7c-0.2-0.2-0.4-0.2-0.6,0l-4.5,4.2C60.6,65.1,60.3,65.1,60.1,64.9z"/><rect width="1" height="14" x="83" y="64" fill="#fff"/><rect width="1" height="14" x="83" y="64" fill="#382673" opacity=".4"/><path fill="#fec632" d="M123,74.7l-1.9,1.9C110.6,87.1,96.4,93,81.5,93c9.2,0,17.9,4.1,23.8,11.1l1.6,1.9  C115.1,97.6,120.9,86.8,123,74.7z"/><path fill="#fff" d="M98.4,42.5L99,41c0.2-0.4,0.8-0.4,0.9,0l0.6,1.5c0.5,1.2,1.4,2.1,2.6,2.6l1.5,0.6c0.4,0.2,0.4,0.8,0,0.9  l-1.5,0.6c-1.2,0.5-2.1,1.4-2.6,2.6l-0.6,1.5c-0.2,0.4-0.8,0.4-0.9,0l-0.6-1.5c-0.5-1.2-1.4-2.1-2.6-2.6l-1.5-0.6  c-0.4-0.2-0.4-0.8,0-0.9l1.5-0.6C97,44.6,97.9,43.6,98.4,42.5z"/></svg>