<svg xmlns="http://www.w3.org/2000/svg" id="Layer_1" enable-background="new 0 0 128 128" version="1.1" viewBox="0 0 128 128" xml:space="preserve"><circle cx="64" cy="64" r="60" fill="#382673"/><circle cx="64" cy="64" r="50" fill="#473080"/><path fill="#007bc6" d="M78,51H50v62c0,1.1,0.9,2,2,2h24c1.1,0,2-0.9,2-2V51z"/><polygon fill="#d44a90" points="99 54 116 54 110 65 116 76 99 76"/><polygon fill="#a72973" points="99 54 102 58 102 59 99 59"/><rect width="38" height="22" x="64" y="58" fill="#f15a9e" transform="rotate(-180 83 69)"/><path fill="#0cafe8" d="M50,51v62c0,1.1,0.9,2,2,2h2V51H50z" opacity=".4"/><polygon fill="#d44a90" points="29 54 12 54 18 65 12 76 29 76"/><polygon fill="#a72973" points="29 54 26 58 26 59 29 59"/><rect width="38" height="22" x="26" y="58" fill="#f15a9e"/><path fill="#382673" d="M74,51v64h2c1.1,0,2-0.9,2-2V51H74z" opacity=".5"/><path fill="#0cafe8" d="M70,24.1V17H58v7.1c-6.4,2.4-11,8.6-11,15.9v13c0,1.1,0.9,2,2,2h30c1.1,0,2-0.9,2-2V40  C81,32.7,76.4,26.5,70,24.1z"/><path fill="#0b90d3" d="M70,24.1V17h-2v7.1C74,28,76,34,76,40v13c0,1.1-0.9,2-2,2h5c1.1,0,2-0.9,2-2V40C81,32.7,76.4,26.5,70,24.1z"/><path fill="none" stroke="#fff" stroke-linecap="round" stroke-linejoin="round" stroke-miterlimit="10" stroke-width="2" d="M61,17v8.1C55,29,53,35,53,41" opacity=".3"/><path fill="#0cafe8" d="M79 59H49c-1.1 0-2 .9-2 2v5c0 1.1.9 2 2 2h30c1.1 0 2-.9 2-2v-5C81 59.9 80.1 59 79 59zM79 70H49c-1.1 0-2 .9-2 2v6c0 1.1.9 2 2 2h30c1.1 0 2-.9 2-2v-6C81 70.9 80.1 70 79 70zM79 82H49c-1.1 0-2 .9-2 2v5c0 1.1.9 2 2 2h30c1.1 0 2-.9 2-2v-5C81 82.9 80.1 82 79 82z"/><path fill="#0b90d3" d="M79,82h-5c1.1,0,2,0.9,2,2v5c0,1.1-0.9,2-2,2h5c1.1,0,2-0.9,2-2v-5C81,82.9,80.1,82,79,82z"/><path fill="#0cafe8" d="M79,93H49c-1.1,0-2,0.9-2,2v5c0,1.1,0.9,2,2,2h30c1.1,0,2-0.9,2-2v-5C81,93.9,80.1,93,79,93z"/><path fill="#0b90d3" d="M79,93h-5c1.1,0,2,0.9,2,2v5c0,1.1-0.9,2-2,2h5c1.1,0,2-0.9,2-2v-5C81,93.9,80.1,93,79,93z"/><path fill="#0cafe8" d="M79,104H49c-1.1,0-2,0.9-2,2v5c0,1.1,0.9,2,2,2h30c1.1,0,2-0.9,2-2v-5C81,104.9,80.1,104,79,104z"/><path fill="#0b90d3" d="M79,104h-5c1.1,0,2,0.9,2,2v5c0,1.1-0.9,2-2,2h5c1.1,0,2-0.9,2-2v-5C81,104.9,80.1,104,79,104z"/><path fill="#fff" d="M79,80H49c-1.1,0-2-0.9-2-2V60c0-1.1,0.9-2,2-2h30c1.1,0,2,0.9,2,2v18C81,79.1,80.1,80,79,80z"/><path fill="#382673" d="M79,58h-5c1.1,0,2,0.9,2,2v18c0,1.1-0.9,2-2,2h5c1.1,0,2-0.9,2-2V60C81,58.9,80.1,58,79,58z" opacity=".2"/><rect width="12" height="4" x="58" y="17" fill="#007bc6"/><path fill="#ffde39" d="M70,11H58c-1.1,0-2,0.9-2,2v6h16v-6C72,11.9,71.1,11,70,11z"/><path fill="#fec632" d="M70,11h-3c1.1,0,2,0.9,2,2v6h3v-6C72,11.9,71.1,11,70,11z"/><path fill="#007bc6" d="M60 73.7h-2.3v-3.5H55v3.5h-2.3v-8.6H55v3.2h2.7v-3.2H60V73.7zM66.6 73.7h-5.1v-1.4l1.6-1c.3-.2.6-.4.8-.5s.3-.3.4-.4.1-.2.1-.4c0-.3-.2-.4-.6-.4-.4 0-.9.2-1.5.7l-1-1.2c.5-.4.9-.7 1.4-.8s.9-.2 1.5-.2c.7 0 1.2.1 1.6.4s.6.7.6 1.2c0 .4-.1.7-.3 1.1s-.6.6-1.1 1L64.4 72v.1h2.1V73.7zM75.9 69.4c0 1.4-.4 2.5-1.1 3.3s-1.7 1.1-3.1 1.1c-1.3 0-2.4-.4-3.1-1.1s-1.1-1.9-1.1-3.3c0-1.4.4-2.5 1.1-3.3s1.7-1.1 3.1-1.1c1.4 0 2.4.4 3.1 1.1S75.9 67.9 75.9 69.4zM70 69.4c0 1.7.6 2.5 1.7 2.5.6 0 1-.2 1.3-.6s.4-1 .4-1.9c0-.9-.1-1.5-.4-1.9s-.7-.6-1.3-.6C70.6 66.9 70 67.7 70 69.4z"/><line x1="53" x2="53" y1="45" y2="48" fill="none" stroke="#fff" stroke-linecap="round" stroke-linejoin="round" stroke-miterlimit="10" stroke-width="2" opacity=".3"/><path fill="#ffde39" d="M36.5 72.3l2.5 1.3c.4.2.8-.1.7-.5l-.5-2.8 2-2c.3-.3.1-.8-.3-.9l-2.8-.4-1.3-2.5c-.2-.4-.7-.4-.9 0l-1.3 2.5L32 67.5c-.4.1-.6.6-.3.9l2 2-.5 2.8c-.1.4.4.7.7.5L36.5 72.3zM91.5 72.3l2.5 1.3c.4.2.8-.1.7-.5l-.5-2.8 2-2c.3-.3.1-.8-.3-.9l-2.8-.4-1.3-2.5c-.2-.4-.7-.4-.9 0l-1.3 2.5L87 67.5c-.4.1-.6.6-.3.9l2 2-.5 2.8c-.1.4.4.7.7.5L91.5 72.3z"/></svg>