<svg xmlns="http://www.w3.org/2000/svg" enable-background="new 0 0 47.5 47.5" viewBox="0 0 47.5 47.5"><defs><clipPath id="a" clipPathUnits="userSpaceOnUse"><path d="M 0,38 38,38 38,0 0,0 0,38 Z"/></clipPath></defs><g clip-path="url(#a)" transform="matrix(1.25 0 0 -1.25 0 47.5)"><path fill="#d99e82" d="m 0,0 c -0.647,2.101 -1.705,6.059 -2.325,7.566 -0.501,1.216 -0.969,2.438 -1.544,3.014 -0.575,0.575 -1.553,0.53 -2.143,-0.058 0,0 -2.468,-1.674 -3.353,-2.783 -1.109,-0.882 -2.785,-3.357 -2.785,-3.357 -0.59,-0.59 -0.635,-1.568 -0.06,-2.143 0.576,-0.575 1.798,-1.043 3.015,-1.544 C -7.689,0.075 -3.73,-0.98 -1.629,-1.63 -1.271,-1.74 0.11,-0.359 0,0" transform="translate(36.222 3.402)"/><path fill="#ea596e" d="m 0,0 c 1.151,-1.151 1.151,-3.016 0,-4.167 l -4.167,-4.167 c -1.151,-1.151 -3.017,-1.151 -4.167,0 l -4.167,4.167 c -1.151,1.151 -1.151,3.016 0,4.167 l 4.167,4.167 c 1.15,1.151 3.016,1.151 4.167,0 L 0,0 Z" transform="translate(14.643 31.692)"/><path fill="#ffcc4d" d="M 0,0 C 0,0 -1.046,-1.047 -4.17,-4.17 -7.292,-7.294 -8.333,-8.335 -8.333,-8.335 L -23.961,7.292 -15.626,15.625 0,0 Z" transform="translate(32.352 13.982)"/><path fill="#292f33" d="M 0,0 C 0,0 2.709,-1.489 3.441,-0.757 4.174,-0.024 2.677,2.678 2.677,2.678 2.677,2.678 0.109,2.63 0,0" transform="translate(33.078 2.237)"/><path fill="#ccd6dd" d="m 0,0 -8.334,-8.334 5.208,-5.209 8.335,8.334 L 0,0 Z" transform="translate(11.518 34.817)"/><path fill="#99aab5" d="M 0,0 -8.334,-8.334 -9.376,-7.292 -1.042,1.042 0,0 Z" transform="translate(13.601 32.734)"/><path fill="#99aab5" d="M 0,0 -8.334,-8.335 -9.375,-7.293 -1.042,1.042 0,0 Z" transform="translate(15.684 30.65)"/></g></svg>