<svg xmlns="http://www.w3.org/2000/svg" data-name="Layer 1" viewBox="0 0 512 512"><rect width="294.183" height="30.903" x="212.441" y="473.596" fill="#f66" rx="15"/><path fill="#ffe966" d="M486.0058,473.59868h-252.94l29.41-81.52,5.25-14.54993,16.4-45.45007,5.25-14.54993,24.87006-68.94006,19.43-53.86c8.73-24.21,42.98-24.21,51.72,0l44.3,122.80005,5.25,14.54993,16.4,45.45007,5.25,14.54993Z"/><path fill="#f66" d="M267.72583,377.52873l-5.25,14.54993a7.37452,7.37452,0,0,0,2.54.45007h189.03a7.38912,7.38912,0,0,0,2.55-.45007l-5.25-14.54993-16.4-45.45007-5.25-14.54993h-140.32l-5.25,14.54993a7.37515,7.37515,0,0,0,2.54.45007Z"/><path fill="#ffdf1f" d="M329.28,342.54947c0,2.82959-.07,5.62988-.22,8.41992a161.2347,161.2347,0,0,1-3.57,26.55957c-1.12,5.09033,12.52,10.1001,10.93,15a162.01889,162.01889,0,0,1-28.26,51.98047,162.92657,162.92657,0,0,1-30.66,29.08984H233.07l29.41-81.52,5.25-14.55029,16.4-45.44971,5.25-14.55029,24.87-68.9397c1.36,1.8999,2.67,3.82984,3.95,5.79A160.99538,160.99538,0,0,1,342.36,317.529c.76,4.93017-13.69,9.93017-13.39,15,.04.49023-14.94.99023-14.91,1.48047C314.21,336.839,329.28,339.68911,329.28,342.54947Z"/><path fill="#ff4e4e" d="M344.28,342.54947c0,2.82959-.07,5.62988-.22,8.41992a161.2347,161.2347,0,0,1-3.57,26.55957q-1.68,7.63549-4.07,15h-71.4a7.37432,7.37432,0,0,1-2.54-.44971l5.25-14.55029,18.94-45a7.375,7.375,0,0,1-2.54-.44971l5.25-14.55029h52.98c.76,4.93017,1.31,9.93017,1.61,15,.04.49023.06.99023.09,1.48047Q344.285,338.25382,344.28,342.54947Z"/><path fill="#eee" d="M329.27582,342.54983c0,2.83008-.07,5.63037-.22,8.42041a162.06193,162.06193,0,0,1-103.65,142.7998,156.73023,156.73023,0,0,1-16.1,5.23,162.96106,162.96106,0,0,1-83.96,0,156.73023,156.73023,0,0,1-16.1-5.23,161.98759,161.98759,0,0,1-103.65-142.7998c-.15-2.79-.22-5.59033-.22-8.42041q0-4.28981.22-8.53955a162.06866,162.06866,0,0,1,103.72-142.71021,159.39518,159.39518,0,0,1,16.11-5.23h.01a163.13562,163.13562,0,0,1,83.78,0h.01a159.39427,159.39427,0,0,1,16.11,5.23,161.9807,161.9807,0,0,1,103.72,142.71021Q329.28079,338.25467,329.27582,342.54983Z"/><path fill="#dedede" d="M329.28,342.54947c0,2.82959-.07,5.62988-.22,8.41992a162.06175,162.06175,0,0,1-103.65,142.7998,156.7313,156.7313,0,0,1-16.1,5.23,161.89461,161.89461,0,0,1-41.98,5.5c-5.06,0-10.06-.25-15-.6997a161.33539,161.33539,0,0,0,26.98-4.8003,156.7313,156.7313,0,0,0,16.1-5.23,162.49353,162.49353,0,0,0,77.73-62.96972c.28-.43018.56-.86036.82-1.29a160.8185,160.8185,0,0,0,25.1-78.54c.15-2.79.22-5.59033.22-8.41992q0-4.29054-.22-8.54c-.06-1.14014-.13-2.28028-.22-3.41016a161.13877,161.13877,0,0,0-25.64-76.22,162.188,162.188,0,0,0-77.86-63.08008,159.39427,159.39427,0,0,0-16.11-5.23h-.01a162.24717,162.24717,0,0,0-26.89-4.77q1.845-.16517,3.72-.3.93007-.06006,1.86-.11987c.63-.04,1.25-.07007,1.87-.1001,1.26-.06006,2.51-.1101,3.77-.13012.53-.01978,1.06-.02979,1.6-.02979.72-.02,1.45-.02,2.18-.02a162.04906,162.04906,0,0,1,41.89,5.47h.01a159.39427,159.39427,0,0,1,16.11,5.23A161.98118,161.98118,0,0,1,329.06,334.00943Q329.285,338.25382,329.28,342.54947Z"/><path fill="#676e87" d="M225.33582 191.30007a7.43041 7.43041 0 0 1-2.65 3.53l-47.86 34.77-3.09 2.25a7.51535 7.51535 0 0 1-8.82 0l-3.09-2.25-47.86-34.77a7.43071 7.43071 0 0 1-2.65-3.53 159.39518 159.39518 0 0 1 16.11-5.23h.01a163.13562 163.13562 0 0 1 83.78 0h.01A159.39427 159.39427 0 0 1 225.33582 191.30007zM60.68579 312.52981l-3.54 2.57031-47.41 34.44971a7.38192 7.38192 0 0 1-4.14 1.42041c-.15-2.79-.22-5.59033-.22-8.42041q0-4.28981.22-8.53955a161.47951 161.47951 0 0 1 35.83-93.34034 7.33708 7.33708 0 0 1 2.52 3.58008L62.3858 301l1.02 3.14991A7.47908 7.47908 0 0 1 60.68579 312.52981zM125.34582 499a156.73023 156.73023 0 0 1-16.1-5.23 162.487 162.487 0 0 1-77.73-62.97021 7.4499 7.4499 0 0 1 4.2-1.28955h62.98a7.49848 7.49848 0 0 1 7.13 5.18994l1.3 4 18.16 55.88965A7.38261 7.38261 0 0 1 125.34582 499zM303.1358 430.79983a162.48549 162.48549 0 0 1-77.73 62.97021 156.73023 156.73023 0 0 1-16.1 5.23 7.38167 7.38167 0 0 1 .06-4.41015l18.16-55.88965 1.3-4a7.49847 7.49847 0 0 1 7.13-5.18994h62.98A7.44976 7.44976 0 0 1 303.1358 430.79983zM329.27582 342.54983c0 2.83008-.07 5.63037-.22 8.42041a7.38192 7.38192 0 0 1-4.14-1.42041l-47.41-34.44971-3.54-2.57031a7.47907 7.47907 0 0 1-2.72-8.37988l1.02-3.14991 18.44-56.75a7.33686 7.33686 0 0 1 2.52-3.58008 161.48127 161.48127 0 0 1 35.83 93.34034Q329.28079 338.25467 329.27582 342.54983z"/><path fill="#595f74" d="M225.34 191.29922a7.4303 7.4303 0 0 1-2.65 3.53l-7.68 5.58008a161.18339 161.18339 0 0 0-19.67-9.11011 159.39427 159.39427 0 0 0-16.11-5.23h-.01a162.24717 162.24717 0 0 0-26.89-4.77q1.845-.16517 3.72-.3.93007-.06006 1.86-.11987c.63-.04 1.25-.07007 1.87-.1001 1.26-.06006 2.51-.1101 3.77-.13012.53-.01978 1.06-.02979 1.6-.02979.72-.02 1.45-.02 2.18-.02a162.04906 162.04906 0 0 1 41.89 5.47h.01A159.39427 159.39427 0 0 1 225.34 191.29922zM303.14 430.79947a162.49353 162.49353 0 0 1-77.73 62.96972 156.7313 156.7313 0 0 1-16.1 5.23 7.38253 7.38253 0 0 1 .06-4.41015l2.71-8.33985a162.58269 162.58269 0 0 0 61.06-55.4497c.28-.43018.56-.86036.82-1.29h24.98A7.45028 7.45028 0 0 1 303.14 430.79947zM329.28 342.54947c0 2.82959-.07 5.62988-.22 8.41992a7.38486 7.38486 0 0 1-4.14-1.41992l-26.08-18.9502a160.93282 160.93282 0 0 0-16.57-60.37988l8.44-25.97022a7.33679 7.33679 0 0 1 2.52-3.58007 161.48528 161.48528 0 0 1 35.83 93.34033Q329.285 338.25382 329.28 342.54947z"/><path fill="#676e87" d="M167.32581 299.69011a7.50006 7.50006 0 0 1-7.5-7.5V225.78a7.5 7.5 0 0 1 15 0v66.41016A7.50006 7.50006 0 0 1 167.32581 299.69011zM235.963 444.51286a7.48283 7.48283 0 0 1-5.70361-2.626l-36.668-42.88282a7.49989 7.49989 0 1 1 11.40039-9.748l36.668 42.88281a7.5 7.5 0 0 1-5.69678 12.374zM98.6886 444.51286a7.5 7.5 0 0 1-5.69678-12.374l38.0376-44.48389a7.49989 7.49989 0 0 1 11.40039 9.74805l-38.0376 44.48389A7.48357 7.48357 0 0 1 98.6886 444.51286zM218.27893 341.17985a7.50152 7.50152 0 0 1-3.09814-14.33447l60.103-27.21387a7.50031 7.50031 0 0 1 6.1875 13.665l-60.103 27.21387A7.47918 7.47918 0 0 1 218.27893 341.17985zM113.78186 340.00651a7.47918 7.47918 0 0 1-3.08936-.66943L53.1803 313.29655A7.50008 7.50008 0 0 1 59.3678 299.632L116.88 325.67253a7.50113 7.50113 0 0 1-3.09814 14.334z"/><polygon fill="#676e87" points="167.326 283.384 105.119 328.58 128.88 401.709 205.772 401.709 229.533 328.58 167.326 283.384"/></svg>