<svg xmlns="http://www.w3.org/2000/svg" id="Layer_1" enable-background="new 0 0 128 128" version="1.1" viewBox="0 0 128 128" xml:space="preserve"><circle cx="64" cy="64" r="60" fill="#382673"/><circle cx="64" cy="64" r="50" fill="#473080"/><rect width="34" height="24" x="47" y="34" fill="#fec632"/><circle cx="64" cy="76" r="33.5" fill="#ffde39"/><circle cx="64" cy="76" r="27.2" fill="#fec632"/><path fill="#f9a74e" d="M37.7,77.8c0-15,12.2-27.2,27.2-27.2c10.3,0,19.2,5.7,23.8,14.1C84.4,55.4,75,48.8,64,48.8  C49,48.8,36.8,61,36.8,76c0,4.7,1.2,9.2,3.4,13.1C38.6,85.6,37.7,81.8,37.7,77.8z"/><circle cx="64" cy="76" r="22.6" fill="#ffde39"/><rect width="34" height="3" x="47" y="38" fill="#f9a74e"/><path fill="#fff" d="M64,84.2l6.9,3.6c1,0.5,2.2-0.3,2-1.5l-1.3-7.7l5.6-5.4c0.8-0.8,0.4-2.2-0.8-2.4l-7.7-1.1l-3.4-7  c-0.5-1-2-1-2.5,0l-3.4,7l-7.7,1.1c-1.1,0.2-1.6,1.6-0.8,2.4l5.6,5.4l-1.3,7.7c-0.2,1.1,1,2,2,1.5L64,84.2z"/><path fill="#d44a90" d="M36.5,10.6L49,35h30L63.1,4C53.5,4.1,44.5,6.5,36.5,10.6z"/><path fill="#a72973" d="M61.9,4.1l-14.4,28L49,35h27l1.5-2.9L63.1,4C62.7,4,62.3,4,61.9,4.1z"/><path fill="#ffde39" d="M80.1,40H47.9c-2.2,0-3.9-1.8-3.9-3.9v-0.1c0-2.2,1.8-3.9,3.9-3.9h32.1c2.2,0,3.9,1.8,3.9,3.9v0.1  C84,38.2,82.2,40,80.1,40z"/><path fill="#473080" d="M47.9,37c-0.5,0-0.9-0.4-0.9-0.9v-0.1c0-0.5,0.4-0.9,0.9-0.9h32.1c0.5,0,0.9,0.4,0.9,0.9v0.1  c0,0.5-0.4,0.9-0.9,0.9H47.9z"/><path fill="#f15a9e" d="M49,35h30l12.5-24.4c-8-4.1-17-6.5-26.6-6.6L49,35z"/></svg>