<svg xmlns="http://www.w3.org/2000/svg" viewBox="0 0 64 64"><path fill="#e6e6e6" d="M11.561,39.32l-.006-.006a17.671,17.671,0,0,1-3.283-2.586A18.011,18.011,0,0,1,8.1,11.46l.007-.007a2.046,2.046,0,0,1,.167-.181,17.994,17.994,0,0,1,25.456,0,17.8,17.8,0,0,1,3.457,4.864l.006.006A17.734,17.734,0,0,1,38.886,22L43,37,24,50Z"/><polygon fill="#333" points="25.296 34.636 31.189 36.418 31.315 42.573 25.5 44.595 21.78 39.69 25.296 34.636"/><rect width="2" height="10.44" x="23.559" y="26.721" fill="#333" transform="rotate(-16.697 24.56 31.943)"/><path fill="#ff8c00" d="M28.308,36A16.386,16.386,0,1,1,42.787,53.9a16.54,16.54,0,0,1-2.782-.559L28,38Z"/><rect width="2" height="32.772" x="43.615" y="21.229" fill="#353535" transform="rotate(-45.001 44.614 37.614)"/><path fill="#353535" d="M59,37A14.015,14.015,0,0,1,45,23a12.831,12.831,0,0,1,.13-1.842l1.98.283A10.929,10.929,0,0,0,47,23,12.04,12.04,0,0,0,60.767,34.871l.287,1.979A14.454,14.454,0,0,1,59,37Z"/><rect width="22.741" height="2" x="36.55" y="32.84" fill="#353535" transform="rotate(-45 47.92 33.84)"/><path fill="#af8861" d="M46.658,47.61c-1.5,1.11-3.54,3.52-6.66,5.74a25.262,25.262,0,0,1-4,2.33A25.564,25.564,0,0,1,25,58a25.558,25.558,0,0,1-11-2.32,24.506,24.506,0,0,1-4-2.34c-3.13-2.22-5.169-4.63-6.659-5.73a.719.719,0,0,1,0-1.22c1.49-1.1,3.529-3.51,6.659-5.73a24.506,24.506,0,0,1,4-2.34A25.558,25.558,0,0,1,25,36a25.564,25.564,0,0,1,11,2.32,25.262,25.262,0,0,1,4,2.33c3.12,2.22,5.16,4.63,6.66,5.74A.72.72,0,0,1,46.658,47.61Z"/><path fill="#f2f2f2" d="M14 38.32V55.68a24.506 24.506 0 0 1-4-2.34V40.66A24.506 24.506 0 0 1 14 38.32zM40 40.65v12.7a25.262 25.262 0 0 1-4 2.33V38.32A25.262 25.262 0 0 1 40 40.65zM31 48H19a1 1 0 0 1 0-2H31a1 1 0 1 1 0 2z"/><path fill="#f2f2f2" d="M21 51a1 1 0 0 1-1-1V44a1 1 0 0 1 2 0v6A1 1 0 0 1 21 51zM25 51a1 1 0 0 1-1-1V44a1 1 0 0 1 2 0v6A1 1 0 0 1 25 51zM29 51a1 1 0 0 1-1-1V44a1 1 0 0 1 2 0v6A1 1 0 0 1 29 51z"/><polygon fill="#333" points="22.359 18.65 26.556 23.154 23.569 28.538 17.526 27.361 16.778 21.25 22.359 18.65"/><path fill="#333" d="M8.1 11.46l.007-.007 2.1.409.744 6.116-5.574 2.6L3.764 18.849A17.766 17.766 0 0 1 8.1 11.46zM20.652 6.02A17.777 17.777 0 0 1 29.059 7.9l.248 2.043-5.587 2.6-4.194-4.5zM35.369 24l-2.72-2.5 2.566-5.593 1.97.228.006.006A17.734 17.734 0 0 1 38.886 22zM6.879 31.074l6.076.958.964 6.083-2.358 1.2-.006-.006a17.671 17.671 0 0 1-3.283-2.586 17.86 17.86 0 0 1-2.6-3.3z"/><rect width="9.9" height="2" x="10.522" y="28.472" fill="#333" transform="rotate(-45.712 15.472 29.472)"/><rect width="8.711" height="1.999" x="25.334" y="21.01" fill="#333" transform="rotate(-14.76 29.732 22.064)"/><rect width="2" height="9.56" x="12.91" y="14.81" fill="#333" transform="rotate(-60.948 13.91 19.59)"/><rect width="8.904" height="2" x="18.528" y="14.52" fill="#333" transform="rotate(-78.794 22.98 15.52)"/><path d="M31,46H30V44a1,1,0,0,0-2,0v2H26V44a1,1,0,0,0-2,0v2H22V44a1,1,0,0,0-2,0v2H19a1,1,0,0,0,0,2h1v2a1,1,0,0,0,2,0V48h2v2a1,1,0,0,0,2,0V48h2v2a1,1,0,0,0,2,0V48h1a1,1,0,1,0,0-2Z"/><path d="M56.908,25.321a17.3,17.3,0,0,0-17.172-4.375A18.691,18.691,0,0,0,38.09,15.7l-.079-.154a18.969,18.969,0,0,0-8.5-8.539l0,0-.059-.029v0A19.077,19.077,0,0,0,7.568,10.563a1.816,1.816,0,0,0-.186.2,19.01,19.01,0,0,0,.183,26.673A18.694,18.694,0,0,0,10,39.447c-.194.132-.389.26-.581.4a42.569,42.569,0,0,0-4.726,4.007,24.165,24.165,0,0,1-1.947,1.731,1.718,1.718,0,0,0,0,2.832,24.272,24.272,0,0,1,1.949,1.733,42.542,42.542,0,0,0,4.722,4,25.275,25.275,0,0,0,4.159,2.434A26.767,26.767,0,0,0,25,59a26.757,26.757,0,0,0,11.42-2.413,25.832,25.832,0,0,0,3.786-2.17A16.649,16.649,0,0,0,44.64,55,17.387,17.387,0,0,0,56.908,25.321Zm2.85,9.639a11.967,11.967,0,0,1-8.641-2.94l4.812-4.811A15.454,15.454,0,0,1,59.758,34.96ZM47.04,22.436a15.476,15.476,0,0,1,7.449,3.384l-4.754,4.754A11.894,11.894,0,0,1,47,23C47,22.808,47.03,22.624,47.04,22.436Zm-2.014-.184c-.014.248-.026.5-.026.748a13.932,13.932,0,0,0,3.3,9.009l-3.939,3.939-9.88-9.88A15.252,15.252,0,0,1,45.026,22.252ZM37,39.952c.676.371,1.34.779,2,1.228V52.82c-.66.449-1.324.856-2,1.227Zm4,2.73c1.121.919,2.092,1.829,2.914,2.607.7.667,1.326,1.256,1.9,1.711-.572.453-1.194,1.043-1.9,1.711-.822.778-1.793,1.688-2.914,2.607Zm-.483-2.888a25.907,25.907,0,0,0-4.094-2.38,25.475,25.475,0,0,0-7.008-2.088,15.4,15.4,0,0,1,3.645-7.853l9.889,9.889ZM11,41.187a23.359,23.359,0,0,1,2-1.234V54.047a23.321,23.321,0,0,1-2-1.234Zm3.743-4.277-.718-4.527,3.842-3.937,5.2,1.013,1.665,5.548A27.082,27.082,0,0,0,14.741,36.91ZM11.875,17.34l-.681-5.6a1,1,0,0,0-.8-.86l-.163-.032a16.765,16.765,0,0,1,8.65-3.7l-.227.408a1,1,0,0,0,.142,1.168l3.722,4-1.039,5.238L16.86,20.109ZM28.227,9.345l-4.27,1.987-3.2-3.438.485-.872a16.715,16.715,0,0,1,6.894,1.553Zm-5.18,18.073-4.616-.9-.572-4.669,4.264-1.987,3.206,3.442Zm3.789,7.642-2.015-6.716,2.437-4.393,5.114-1.346,1.477,1.36a17.721,17.721,0,0,0-1.528,1.356A17.406,17.406,0,0,0,27.427,35.1C27.23,35.089,27.034,35.072,26.836,35.06Zm8.7-12.267-1.67-1.536,1.961-4.272.685.079A16.683,16.683,0,0,1,37.82,21.63,17.207,17.207,0,0,0,35.531,22.793Zm-.178-7.875-.023,0a.987.987,0,0,0-1.023.576l-2.368,5.161-5.1,1.341-3.4-3.65,1-5.03,5.291-2.461a1,1,0,0,0,.57-1.027l0-.046a17.041,17.041,0,0,1,2.727,2.2A16.843,16.843,0,0,1,35.353,14.918ZM8.462,12.541,9.3,12.7l.569,4.674L5.608,19.363,4.9,18.6A16.889,16.889,0,0,1,8.462,12.541ZM4.294,20.886l.345.372a1,1,0,0,0,.733.319.982.982,0,0,0,.422-.094L10.916,19.1l4.926,2.737.633,5.174-3.863,3.959-5.577-.879a1,1,0,0,0-1.046.533l-.344.672A16.926,16.926,0,0,1,4.294,20.886ZM8.979,36.021a16.875,16.875,0,0,1-2.144-2.667l.6-1.179,4.642.732.771,4.863q-.507.255-1,.533A16.712,16.712,0,0,1,8.979,36.021ZM4.185,47c.565-.449,1.183-1.033,1.883-1.7.824-.78,1.8-1.694,2.93-2.617v8.624c-1.13-.923-2.106-1.836-2.93-2.617C5.369,48.033,4.752,47.45,4.185,47ZM15,55.023V38.977A24.989,24.989,0,0,1,25,37a24.989,24.989,0,0,1,10,1.977V55.023A25,25,0,0,1,25,57,24.982,24.982,0,0,1,15,55.023Zm27.9-2.118c-.193-.022-.383-.061-.575-.09,1.144-.941,2.129-1.863,2.962-2.652a24.342,24.342,0,0,1,1.963-1.747,1.718,1.718,0,0,0,0-2.83,24.377,24.377,0,0,1-1.965-1.749c-.883-.837-1.929-1.821-3.165-2.822l2.239-2.239L54.747,49.161A15.3,15.3,0,0,1,42.9,52.905Zm3.163-6.1,0,0,.592.806Zm10.1.94L45.776,37.362,49.7,33.436A13.924,13.924,0,0,0,59,37c.318,0,.64-.013.964-.036A15.26,15.26,0,0,1,56.162,47.747Z"/></svg>