<svg xmlns="http://www.w3.org/2000/svg" id="Layer_1" enable-background="new 0 0 128 128" version="1.1" viewBox="0 0 128 128" xml:space="preserve"><circle cx="64" cy="64" r="60" fill="#382673"/><circle cx="64" cy="64" r="50" fill="#473080"/><polygon fill="#fff" points="108 93 20 93 27 86 101 86"/><polygon fill="#382673" points="108 93 20 93 27 86 101 86" opacity=".2"/><rect width="88" height="7" x="20" y="93" fill="#fff"/><polygon fill="#00a58c" points="55 85 27 59 34 54 55 54"/><rect width="28" height="31" x="27" y="59" fill="#00c2a9"/><polygon fill="#d44a90" points="102 69 74 85 74 64 95 64"/><rect width="28" height="21" x="74" y="69" fill="#f15a9e"/><rect width="28" height="42" x="50" y="48" fill="#ffde39"/><polygon fill="#fec632" points="78 48 50 48 54 42 74 42"/><path fill="#fff" d="M64 35.8l5.1 2.7c.7.4 1.6-.2 1.5-1.1l-1-5.7 4.1-4c.6-.6.3-1.6-.6-1.7l-5.7-.8L64.9 20c-.4-.8-1.4-.8-1.8 0l-2.5 5.1L54.9 26c-.8.1-1.2 1.1-.6 1.7l4.1 4-1 5.7c-.1.8.7 1.5 1.5 1.1L64 35.8zM67.3 77.7h-4.4v-8.6c0-1 0-2 .1-2.9-.3.3-.6.7-1 1l-1.8 1.5L57.8 66l5.6-4.5h3.9V77.7z"/><path fill="#0cafe8" d="M20,104.9c11,11.8,26.6,19.3,44,19.3s33-7.5,44-19.3V100H20V104.9z"/></svg>