<svg xmlns="http://www.w3.org/2000/svg" id="Layer_1" enable-background="new 0 0 128 128" version="1.1" viewBox="0 0 128 128" xml:space="preserve"><circle cx="64" cy="64" r="60" fill="#382673"/><circle cx="64" cy="64" r="50" fill="#473080"/><path fill="#ffde39" d="M49,122.1c4.8,1.2,9.8,1.9,15,1.9c1.7,0,3.3-0.1,5-0.2V78.4L49,64V122.1z"/><path fill="#f9a74e" d="M59,30l0,32.3c0,2.4-1.6,4.6-3.9,5C51.8,68,49,65.6,49,62.5l0-32.3c0-2.4,1.6-4.6,3.9-5   C56.2,24.4,59,26.9,59,30z"/><path fill="#382673" d="M58,27l-7.9,9.9c-0.7,0.9-1.1,2-1.1,3.1l0,14.9c0,2.4,1.6,4.6,3.9,5c3.2,0.7,6.1-1.8,6.1-4.9V41.8V30  C59,28.9,58.6,27.8,58,27z" opacity=".2"/><path fill="#fec632" d="M69,35c0,1.1-0.4,2.2-1.1,3.1L59,49.2l0,13.1c0,2.4-1.6,4.6-3.9,5C51.8,68,49,65.6,49,62.5v-15   c0-1.1,0.4-2.2,1.1-3.1l10-12.5c1.7-2.2,4.9-2.5,7-0.8C68.4,32,69,33.5,69,35z"/><path fill="#382673" d="M67.3,38.9c-10.2,0.8-18.2,9.4-18.2,19.8c0,2.5,0.5,4.9,1.3,7.1c1.2,1.3,2.9,1.9,4.9,1.5   c2.2-0.5,3.7-2.7,3.7-5l0-13L67.3,38.9z" opacity=".1"/><path fill="none" stroke="#ffde39" stroke-linecap="round" stroke-linejoin="round" stroke-miterlimit="10" stroke-width="10" d="M82.8,69.8c-3.1,8.6-12.6,8.7-13.9,8.7c-8.2,0-14.9-6.7-14.9-14.9s6.7-14.9,14.9-14.9C76.3,48.7,80,53,80,53"/><path fill="#0cafe8" d="M49,103h20.2c1,0,1.8-0.8,1.8-1.8v-8.4c0-1-0.8-1.8-1.8-1.8H49V103z"/><path fill="#fff" d="M47,88h-1c-0.6,0-1,0.4-1,1v1h3v-1C48,88.4,47.6,88,47,88z"/><circle cx="66.5" cy="97" r="1.5" fill="#0b90d3"/><circle cx="60.5" cy="97" r="1.5" fill="#0b90d3"/><path fill="#382673" d="M47,88h-1c-0.6,0-1,0.4-1,1v1h3v-1C48,88.4,47.6,88,47,88z" opacity=".2"/><path fill="#fff" d="M46,106h1c1.1,0,2-0.9,2-2V91c0-1.1-0.9-2-2-2h-1c-1.1,0-2,0.9-2,2v13C44,105.1,44.9,106,46,106z"/><path fill="#382673" d="M47,89h-1c-0.2,0-0.3,0-0.5,0.1c0.9,0.2,1.5,1,1.5,1.9v13c0,0.9-0.6,1.7-1.5,1.9c0.2,0,0.3,0.1,0.5,0.1h1  c1.1,0,2-0.9,2-2V91C49,89.9,48.1,89,47,89z" opacity=".2"/><path fill="#00c2a9" d="M91.3 32.6l.9-2.3c.3-.6 1.2-.6 1.4 0l.9 2.3c.7 1.8 2.1 3.2 3.9 3.9l2.3.9c.6.3.6 1.2 0 1.4l-2.3.9c-1.8.7-3.2 2.1-3.9 3.9l-.9 2.3c-.3.6-1.2.6-1.4 0l-.9-2.3c-.7-1.8-2.1-3.2-3.9-3.9l-2.3-.9c-.6-.3-.6-1.2 0-1.4l2.3-.9C89.2 35.8 90.6 34.4 91.3 32.6zM26.4 59.5L27 58c.2-.4.8-.4.9 0l.6 1.5c.5 1.2 1.4 2.1 2.6 2.6l1.5.6c.4.2.4.8 0 .9L31 64.1c-1.2.5-2.1 1.4-2.6 2.6l-.6 1.5c-.2.4-.8.4-.9 0l-.6-1.5c-.5-1.2-1.4-2.1-2.6-2.6l-1.5-.6c-.4-.2-.4-.8 0-.9l1.5-.6C25 61.6 25.9 60.6 26.4 59.5z"/><circle cx="99" cy="65" r="2" fill="#fff"/><circle cx="36" cy="41" r="2" fill="#fff"/></svg>