<svg xmlns="http://www.w3.org/2000/svg" enable-background="new 0 0 130 130" viewBox="0 0 130 130"><path fill="#66B071" d="M129,64.99937c0,35.34998-28.65015,64-64,64c-35.34009,0-64-28.65002-64-64s28.65991-64,64-64
					c14.08984,0,27.10986,4.54999,37.67993,12.26001c1.89014,1.37,3.68994,2.83997,5.40991,4.40997
					C120.93994,29.37938,129,46.23937,129,64.99937z"/><path fill="#479E60" d="M114.1751 105.97241c-11.37012 13.63-28.31006 22.45996-47.32007 23-2.14014-.05994-4.23999-.22998-6.31006-.48999-1.41992-.17993-2.81982-.40991-4.20996-.68994-.58008-.11011-1.16992-.23999-1.75-.37012-12.06006-2.71997-22.82007-8.84985-31.23999-17.31995v-3.56995c0-7.83008 4.45996-14.96997 11.5-18.40002l12.90015-6.28003 4.96973-2.43005 3.62012-4.73999v-4.0199c-2.95996-3.35999-5.28003-7.91003-6.6499-13.16003-.09009-.18994-.18018-.37-.28003-.56006-.19019.02002-.38013.06006-.58008.06006-2.72998 0-4.94995-2.21997-4.94995-4.91992 0-1.63013.79004-3.06006 2.01001-3.96008-1.13989-3.79993-1.77002-7.52991-1.77002-10.76001 0-13.57996 11.01001-24.57996 24.59009-24.57996 13.57983 0 24.57983 11 24.57983 24.57996 0 3.21008-.61987 6.90002-1.73999 10.67004 1.27002.88989 2.1001 2.37 2.1001 4.05005 0 2.69995-2.18994 4.91992-4.91992 4.91992-.25 0-.49023-.04004-.72021-.07007-.08984.17004-.16992.34009-.25977.51001-1.3501 5.22009-3.63013 9.73999-6.56006 13.10009v4.13989l3.61987 4.73999 4.95996 2.42017 12.92017 6.28992C109.54498 91.48242 113.9649 98.36243 114.1751 105.97241zM9.98636 72.75085H1.48734c.07202.59717.13867 1.1958.22729 1.78809h8.27173c.49146 0 .8938-.40234.8938-.89404S10.47782 72.75085 9.98636 72.75085zM118.42728 47.13174l8.02954.00049c-.17383-.59912-.35083-1.19629-.54175-1.78809l-7.48779-.00049c-.4917 0-.89404.4021-.89404.8938v.00024C117.53323 46.72939 117.93558 47.13174 118.42728 47.13174z"/><circle cx="115.683" cy="46.238" r=".894" fill="#479E60"/><path fill="#479E60" d="M118.32009 86.68984c-.49414 0-.89502.40039-.89502.89502 0 .49414.40088.89502.89502.89502l6.21826-.00024c.23462-.59424.47119-1.18726.68823-1.78979H118.32009zM55.62592 11.13156c.00006-.49997.40003-.89984.89004-.89983.50002.00001.90012.39989.90006.89986-.00006.48996-.40028.89007-.90029.89006C56.02572 12.02164 55.62586 11.62151 55.62592 11.13156zM53.516 10.23176l-6.59129-.00022c-.49431-.00002-.89503.40069-.89503.895v0c0 .4943.4007.895.895.895l6.59084 0c.49023 0 .90039-.40015.90039-.89014C54.4159 10.64167 54.00574 10.23176 53.516 10.23176zM27.38991 94.96275c.00006-.49997.40003-.89984.89004-.89983.50002.00001.90012.39989.90006.89986-.00006.48996-.40027.89008-.90029.89006C27.78971 95.85284 27.38984 95.45271 27.38991 94.96275zM12.31804 73.64976c.00006-.49996.40003-.89983.89004-.89983.50002.00002.90012.39989.90006.89986-.00006.48996-.40027.89008-.90029.89006C12.71784 74.53985 12.31797 74.13972 12.31804 73.64976zM25.27999 94.06295l-6.59129-.00021c-.49431-.00002-.89503.4007-.89503.895l0 0c0 .4943.40071.895.895.895h6.59084c.49023 0 .90039-.40015.90039-.89014C26.17989 94.47286 25.76973 94.06295 25.27999 94.06295zM22.59178 44.11198c.00006-.49997.40003-.89984.89004-.89983.50002.00001.90012.39989.90006.89986-.00006.48996-.40027.89007-.90029.89006C22.99158 45.00207 22.59172 44.60194 22.59178 44.11198zM20.48186 43.21218l-6.59129-.00022c-.49431-.00002-.89503.4007-.89503.895v0c0 .4943.40071.895.895.895h6.59083c.49023 0 .90039-.40015.90039-.89014C21.38176 43.6221 20.97161 43.21218 20.48186 43.21218zM29.92164 43.21218l-2.39818-.00022c-.49431-.00002-.89503.4007-.89503.895v0c0 .4943.40071.895.895.895h2.39772c.49023 0 .90039-.40015.90039-.89014C30.82155 43.6221 30.41139 43.21218 29.92164 43.21218zM90.02232 17.4513c.00006-.49997.40003-.89984.89004-.89983.50002.00001.90012.39989.90005.89986-.00006.48996-.40028.89007-.90029.89006C90.42211 18.34139 90.02225 17.94126 90.02232 17.4513zM87.91239 16.5515L75.3211 16.55129c-.49431-.00002-.89503.4007-.89503.895v0c0 .4943.40071.895.895.895l12.59084 0c.49023 0 .90039-.40015.90039-.89014C88.81229 16.96142 88.40214 16.5515 87.91239 16.5515zM116.02618 70.10757c.00007-.49996.40003-.89983.89004-.89983.50002.00002.90012.39989.90006.89986-.00007.48996-.40028.89008-.90029.89006C116.42599 70.99767 116.02612 70.59753 116.02618 70.10757zM113.91627 69.20778l-12.59129-.00021c-.49431-.00002-.89503.4007-.89503.895l0 0c0 .49429.4007.895.895.895h12.59084c.49023 0 .90039-.40015.90039-.89014C114.81617 69.61769 114.40601 69.20778 113.91627 69.20778zM54.65617 72.75581c.00006-.49997.40003-.89984.89004-.89983.50002.00001.90012.39989.90006.89986-.00006.48996-.40028.89008-.90029.89007C55.05597 73.6459 54.65611 73.24577 54.65617 72.75581zM52.54625 71.85601L39.95496 71.8558c-.49431-.00002-.89503.4007-.89503.895l0 0c0 .4943.40071.895.895.895h12.59084c.49023 0 .90039-.40015.90039-.89014C53.44615 72.26592 53.036 71.85601 52.54625 71.85601z"/><path fill="#EDEDED" d="M110.42605,106.53085v3.55994c-8.42017,8.47998-19.19019,14.60999-31.25,17.33997
			c-0.58008,0.13-1.16016,0.25-1.74023,0.35999c-1.38989,0.28002-2.7998,0.51-4.21997,0.69006
			c-2.68994,0.33997-5.42993,0.52002-8.20996,0.52002c-2.79004,0-5.53003-0.18005-8.21997-0.52002
			c-1.41992-0.18005-2.82007-0.41003-4.20996-0.69006c-0.58008-0.10999-1.16992-0.23999-1.75-0.37
			c-12.06006-2.71997-22.82007-8.84998-31.23999-17.32007v-3.56982c0-7.83008,4.45996-14.97009,11.5-18.40015l12.8999-6.28003
			l8.59009-4.18994h24.85986l8.57007,4.18005l12.92017,6.28992C105.95583,91.56075,110.42605,98.70077,110.42605,106.53085z"/><rect width="1" height="39.927" x="62.084" y="87.918" fill="#FFF"/><path fill="#FFF" d="M25.79665 101.90755c-.14551 0-.29297-.03174-.43359-.09912-.49707-.24023-.70605-.83789-.46582-1.33545 2.19238-4.5459 5.89941-8.26758 10.4375-10.479.50098-.24316 1.0957-.03467 1.33789.46094.24121.49658.03516 1.09521-.46094 1.33691-4.13672 2.01563-7.51563 5.40723-9.51367 9.55029C26.52615 101.69955 26.16872 101.90755 25.79665 101.90755zM23.65603 111.28109c-.55273 0-1-.44775-1-1 0-1.59766.16992-3.19727.50488-4.75391.11523-.53955.65039-.88428 1.1875-.76709.54004.11621.88379.64795.76758 1.18799-.30566 1.41846-.45996 2.87646-.45996 4.33301C24.65603 110.83334 24.20876 111.28109 23.65603 111.28109z"/><path fill="#DDDCE0" d="M110.42605,106.53085v3.55994c-8.42017,8.47998-19.19019,14.60999-31.25,17.33997
			c-0.58008,0.13-1.16016,0.25-1.74023,0.35999c-1.38989,0.28002-2.7998,0.51-4.21997,0.69006
			c-2.68994,0.33997-5.42993,0.52002-8.20996,0.52002c-2.79004,0-5.53003-0.18005-8.21997-0.52002
			c-1.41992-0.18005-2.82007-0.41003-4.20996-0.69006c-0.58008-0.10999-1.16992-0.23999-1.75-0.37
			c-12.06006-2.71997-22.82007-8.84998-31.23999-17.32007v-3.56982c0-0.75,0.04004-1.49011,0.11987-2.22009
			c11.01001,12.66003,27.22998,20.69006,45.30005,20.69006c18.06006,0,34.29004-8.03003,45.30005-20.69006
			C110.38601,105.04073,110.42605,105.78085,110.42605,106.53085z"/><polygon fill="#F2B58C" points="52.575 62.707 52.575 77.661 65.003 87.918 77.431 77.661 77.431 62.707"/><path fill="#FFF" d="M77.43095 74.68642c0 0-7.10266 1.57052-12.42805 13.23116 0 0 11.84696 2.30518 12.42805 6.56651 0 0-1.22542-9.63741 3.617-15.06092L77.43095 74.68642zM52.57483 74.68642c0 0 7.10266 1.57052 12.42806 13.23116 0 0-11.84697 2.30518-12.42806 6.56651 0 0 1.22542-9.63741-3.617-15.06092L52.57483 74.68642z"/><path fill="#2F4867" d="M89.52914,37.36269c0,13.57861-11.00604,35.84627-24.58466,35.84627S40.35983,50.9413,40.35983,37.36269
				c0-13.57898,11.00605-24.58503,24.58466-24.58503S89.52914,23.78371,89.52914,37.36269z"/><path fill="#FFBF9C" d="M89.89028 52.07758c0 2.70742-2.19398 4.92534-4.92534 4.92534-2.73079 0-4.94813-2.21791-4.94813-4.92534 0-2.73136 2.21734-4.9487 4.94813-4.9487C87.6963 47.12888 89.89028 49.34622 89.89028 52.07758zM49.98897 52.07758c0 2.70742-2.19398 4.92534-4.92534 4.92534-2.73079 0-4.94813-2.21791-4.94813-4.92534 0-2.73136 2.21734-4.9487 4.94813-4.9487C47.79499 47.12888 49.98897 49.34622 49.98897 52.07758z"/><path fill="#FFCEAB" d="M85.32315,47.6571c-0.37591,16.2345-9.34761,29.23938-20.3699,29.23938
				c-11.26177,0-20.38742-13.56853-20.38742-30.29868c0-0.01606,0.00001-0.03212,0.00003-0.04818
				c0.0027-2.53274,2.17172-4.52406,4.70119-4.39546c4.49572,0.22856,10.27018,0.3101,13.75493-0.47819
				c2.20715-0.49633,5.09879-1.86565,7.92541-3.43606c4.9513-2.75084,11.13086-0.24643,12.75816,5.17892
				C84.18564,45.01941,84.72725,46.50533,85.32315,47.6571z"/><path fill="#FFBF9C" d="M65.02911,68.02831c-1.09336,0-2.17618-0.26939-3.16811-0.7996
					c-0.32801-0.17587-0.45184-0.58488-0.27532-0.9129c0.17652-0.32932,0.58752-0.45052,0.91289-0.27663
					c1.26724,0.67906,2.72285,0.82331,4.09811,0.40639c1.37526-0.41627,2.50682-1.34365,3.18523-2.61023
					c0.1752-0.32998,0.5862-0.45052,0.91289-0.27663c0.328,0.17586,0.45184,0.58488,0.27531,0.91289
					c-0.84834,1.58471-2.26312,2.74459-3.98351,3.26492C66.34245,67.93149,65.6838,68.02831,65.02911,68.02831z"/><path fill="#2F4867" d="M85.70221 35.7801v19.52493h-.94789c-1.37829 0-2.49867-1.11996-2.49867-2.49868V35.7801H85.70221zM44.30653 35.7801v19.52493h.94789c1.37829 0 2.49868-1.11996 2.49868-2.49868V35.7801H44.30653zM74.98759 51.40021c0 1.27427-1.03875 2.3135-2.31349 2.3135-1.27426 0-2.31349-1.03923-2.31349-2.3135 0-1.27474 1.03923-2.31397 2.31349-2.31397C73.94884 49.08624 74.98759 50.12547 74.98759 51.40021zM76.26897 47.50963c0 .25002-.19995.45027-.44997.45027h-6.2895c-.25002 0-.45028-.20026-.45028-.45027 0-.25002.20026-.46249.45028-.46249h6.2895C76.06902 47.04714 76.26897 47.25961 76.26897 47.50963zM59.52837 51.40021c0 1.27427-1.03875 2.3135-2.31349 2.3135-1.27427 0-2.31349-1.03923-2.31349-2.3135 0-1.27474 1.03923-2.31397 2.31349-2.31397C58.48962 49.08624 59.52837 50.12547 59.52837 51.40021zM60.80975 47.50963c0 .25002-.19995.45027-.44997.45027h-6.2895c-.25002 0-.45028-.20026-.45028-.45027 0-.25002.20026-.46249.45028-.46249h6.2895C60.6098 47.04714 60.80975 47.25961 60.80975 47.50963z"/><path fill="#FFBF9C" d="M62.1194,59.20683c0.47683,2.639,5.17336,2.639,5.65019,0
				C65.88654,59.81746,64.00314,59.81746,62.1194,59.20683z"/><path fill="#FFF" d="M66.04498 92.86982c0 .53003-.42993.95996-.94995.95996-.53003 0-.94995-.42993-.94995-.95996 0-.52002.41992-.94995.94995-.94995C65.61504 91.91987 66.04498 92.3498 66.04498 92.86982zM66.04498 102.26852c0 .53003-.42993.95996-.94995.95996-.53003 0-.94995-.42993-.94995-.95996 0-.52002.41992-.94995.94995-.94995C65.61504 101.31857 66.04498 101.7485 66.04498 102.26852zM66.04498 111.66722c0 .53003-.42993.95996-.94995.95996-.53003 0-.94995-.42993-.94995-.95996 0-.52002.41992-.94995.94995-.94995C65.61504 110.71727 66.04498 111.1472 66.04498 111.66722zM66.04498 121.06592c0 .53003-.42993.95996-.94995.95996-.53003 0-.94995-.42993-.94995-.95996 0-.52002.41992-.94995.94995-.94995C65.61504 120.11597 66.04498 120.5459 66.04498 121.06592z"/></svg>