<svg xmlns="http://www.w3.org/2000/svg" data-name="Layer 1" viewBox="0 0 64 64"><circle cx="32" cy="32" r="27" fill="#27aae1"/><path fill="#ffd2b4" d="M48.75,53.16a26.94,26.94,0,0,1-33.5,0L16,50.5A9.12,9.12,0,0,1,24.79,44H39.21A9.12,9.12,0,0,1,48,50.5Z"/><path fill="#ffd2b4" d="M36,39v5.76a2,2,0,0,1-1.11,1.8h0a6.46,6.46,0,0,1-5.78,0h0A2,2,0,0,1,28,44.76V39Z"/><path fill="#ffd2b4" d="M32,15.21C43.45,15.21,42.47,26,42.47,26c1.68-.17,3,.49,3,2.86s-1,2.86-2.35,3a.29.29,0,0,0-.27.27c-.39,3.69-3,6.39-5.58,8.2a9.16,9.16,0,0,1-10.56,0c-2.57-1.81-5.19-4.52-5.58-8.2a.29.29,0,0,0-.27-.27c-1.31-.13-2.35-.63-2.35-3s1.27-3,2.94-2.86C21.47,26,20.54,15.21,32,15.21Z"/><path fill="#262234" d="M36,41.08v1.5a9.16,9.16,0,0,1-8,0v-1.5a9.16,9.16,0,0,0,8,0Z" opacity=".1"/><circle cx="28.04" cy="28.15" r="1.7" fill="#262234"/><circle cx="35.96" cy="28.15" r="1.7" fill="#262234"/><path fill="#611c24" d="M35.87,32.53a1,1,0,0,1,1,1.25,5,5,0,0,1-9.68,0,1,1,0,0,1,1-1.25Z"/><path fill="#be1e2d" d="M34.42,36.91a5,5,0,0,1-4.84,0c.2-1.23,1.21-1.57,2.42-1.57S34.22,35.68,34.42,36.91Z"/><path fill="#fff" d="M34.87,32.53v.95a.37.37,0,0,1-.36.37h-5a.37.37,0,0,1-.36-.37v-.95Z"/><path fill="#262234" d="M32,13.63c-8.83,0-11.31,6.71-11.31,12.72A9.56,9.56,0,0,0,21,28.47c.18.72,2.07.69,2.19,0a16.75,16.75,0,0,1,1.11-6.85,1.07,1.07,0,0,1,.06-.09,12.65,12.65,0,0,0,4.29,2.77.38.38,0,0,0,.51-.47,17.69,17.69,0,0,1-.49-1.75,12.45,12.45,0,0,0,4.55,2.67.38.38,0,0,0,.49-.5c-.15-.39-.34-.89-.5-1.44a11.91,11.91,0,0,0,5.27,2,.38.38,0,0,0,.39-.58,17,17,0,0,1-1-1.82,13.25,13.25,0,0,0,2.53.86,20.68,20.68,0,0,1,.51,5.18c.11.64,2,.67,2.19,0a9.56,9.56,0,0,0,.26-2.12C43.31,20.33,40.84,13.63,32,13.63Z"/><path fill="#262234" d="M32.13,16s-1.39-2.46-6.84-3a.38.38,0,0,0-.35.61c.2.27.43.6.66,1a15.57,15.57,0,0,0-2.85.3.38.38,0,0,0-.16.68c1.22.93,3.6,3,3.06,4.39Z"/><path fill="#be1e2d" d="M44.31,56a27,27,0,0,1-24.62,0l.71-2a20,20,0,0,0,1.21-6.85V44.58A8.92,8.92,0,0,1,24.79,44h1.55v1a5.6,5.6,0,0,0,.95,3.13A5.66,5.66,0,0,0,37.66,45V44h1.55a8.92,8.92,0,0,1,3.18.58v2.64a20,20,0,0,0,1.21,6.85Z"/><path fill="#a21b25" d="M39.21,45a8,8,0,0,1,2.18.3v1.92a21,21,0,0,0,1.27,7.19l.41,1.12a26,26,0,0,1-22.13,0l.41-1.12a21,21,0,0,0,1.27-7.19V45.3a8,8,0,0,1,2.18-.3h.55a6.59,6.59,0,0,0,1.12,3.67,6.69,6.69,0,0,0,3,2.46,6.79,6.79,0,0,0,5.15,0A6.66,6.66,0,0,0,38.66,45h.55m0-1H37.66v1a5.67,5.67,0,0,1-3.47,5.22,5.65,5.65,0,0,1-6.9-2.09A5.6,5.6,0,0,1,26.34,45V44H24.79a8.92,8.92,0,0,0-3.18.58v2.64a20,20,0,0,1-1.21,6.85l-.71,2a27,27,0,0,0,24.62,0l-.71-2a20,20,0,0,1-1.21-6.85V44.58A8.92,8.92,0,0,0,39.21,44Z"/><path fill="#f1f2f2" d="M37.21,52.75a1.9,1.9,0,0,1,.32,1.19,1.92,1.92,0,0,1-.32,1.19,1.22,1.22,0,0,1-1.83,0,2.38,2.38,0,0,1,0-2.38,1.22,1.22,0,0,1,1.83,0ZM36,53.22a2.76,2.76,0,0,0,0,1.43.32.32,0,0,0,.31.21.31.31,0,0,0,.31-.21,2.81,2.81,0,0,0,0-1.43A.31.31,0,0,0,36.3,53,.32.32,0,0,0,36,53.22Z"/><path fill="#a21b25" d="M36.3,52.34a1.09,1.09,0,0,1,.91.41,1.9,1.9,0,0,1,.32,1.19,1.92,1.92,0,0,1-.32,1.19,1.22,1.22,0,0,1-1.83,0,2.38,2.38,0,0,1,0-2.38,1.09,1.09,0,0,1,.92-.41m0,2.52a.31.31,0,0,0,.31-.21,2.81,2.81,0,0,0,0-1.43A.31.31,0,0,0,36.3,53a.32.32,0,0,0-.31.21,2.76,2.76,0,0,0,0,1.43.32.32,0,0,0,.31.21m0-3a1.59,1.59,0,0,0-1.32.61,2.85,2.85,0,0,0,0,3,1.71,1.71,0,0,0,2.63,0,2.84,2.84,0,0,0,0-3,1.59,1.59,0,0,0-1.31-.61Z"/><path fill="#f1f2f2" d="M38.2,52.36h2a.13.13,0,0,1,.13.13V53a.13.13,0,0,1,0,0l-.95,2.41a.13.13,0,0,1-.12.08h-.58a.13.13,0,0,1-.12-.18l.81-2.07a.13.13,0,0,0-.12-.18h-.29a.13.13,0,0,0-.13.13v.18a.13.13,0,0,1-.13.13H38.2a.13.13,0,0,1-.13-.13v-.91A.13.13,0,0,1,38.2,52.36Z"/><path fill="#a21b25" d="M40.17 52.36a.13.13 0 0 1 .13.13V53a.13.13 0 0 1 0 0l-.95 2.41a.13.13 0 0 1-.12.08h-.58a.13.13 0 0 1-.12-.18l.81-2.07a.13.13 0 0 0-.12-.18h-.29a.13.13 0 0 0-.13.13v.18a.13.13 0 0 1-.13.13H38.2a.13.13 0 0 1-.13-.13v-.91a.13.13 0 0 1 .13-.13h2m0-.5h-2a.63.63 0 0 0-.63.63v.91a.63.63 0 0 0 .63.63h.3l-.44 1.12a.63.63 0 0 0 .59.86h.58a.62.62 0 0 0 .58-.4l.95-2.41 0-.09v-.62a.63.63 0 0 0-.63-.63zM43.3 25.89a10.06 10.06 0 0 0-2.77-1.8A20.62 20.62 0 0 0 32 22.41a20.62 20.62 0 0 0-8.53 1.68 10.06 10.06 0 0 0-2.77 1.8 17.15 17.15 0 0 1 .89-5.32A24.28 24.28 0 0 1 32 18.41a24.28 24.28 0 0 1 10.41 2.16A17.15 17.15 0 0 1 43.3 25.89z"/><path fill="#be1e2d" d="M43.25,24.85a10,10,0,0,0-2.72-1.76c-.1,0-.19-.09-.29-.12a18.28,18.28,0,0,0-5-1.34A22.29,22.29,0,0,0,32,21.41c-.82,0-1.62,0-2.38.11A19.2,19.2,0,0,0,23.76,23c-.1,0-.19.08-.29.12a10,10,0,0,0-2.72,1.76,15.18,15.18,0,0,1,1.35-5.5A24.47,24.47,0,0,1,32,17.41a24.47,24.47,0,0,1,9.9,1.94A15.18,15.18,0,0,1,43.25,24.85Z"/></svg>