<svg xmlns="http://www.w3.org/2000/svg" id="Layer_1" enable-background="new 0 0 128 128" version="1.1" viewBox="0 0 128 128" xml:space="preserve"><circle cx="64" cy="64" r="60" fill="#382673"/><circle cx="64" cy="64" r="50" fill="#473080"/><path fill="#d44a90" d="M91,55.1c-15-5.5-29.8-11.9-44.3-19.3C38,58.8,33.2,83.7,33,109.5c8.1-3.9,16.3-7.5,24.6-10.7    c7.7,5.5,15.7,10.4,23.7,14.5C81.1,92.8,84.5,73.1,91,55.1z"/><path fill="#a72973" d="M37.6,67.1c0.7,0.6,1.5,1.1,2.4,1.3c3.2,0.8,5.5,4.3,5.6,8.5c0,0,0,0,0,0c0.3,6.4,5.8,10,10.1,7    c2.9-1.9,6.4-1,8.6,1.8c3.4,4.4,9.4,3.1,11.4-1.8c0,0,0,0,0,0c1.4-3.2,4.7-4.8,7.8-4c0.2,0.1,0.4,0.1,0.6,0.1    c1.6-8.6,3.9-17,6.8-25c-15-5.5-29.8-11.9-44.3-19.3C42.9,45.9,39.8,56.3,37.6,67.1z"/><path fill="#f15a9e" d="M87.3,53.7C74.8,49,62.5,43.6,50.4,37.6c-8.2,21.8-12.9,45.5-13.3,70c6.8-3.1,13.6-6.1,20.5-8.8    c6.4,4.6,13,8.7,19.7,12.4C77.3,90.9,80.8,71.5,87.3,53.7z"/><path fill="#d44a90" d="M45.6,76.9C45.6,76.9,45.6,76.9,45.6,76.9c0.3,6.4,5.7,8.8,10.1,5.8c2.9-1.9,6.4-1,8.6,1.9    c3.3,4.4,9.5,4.3,11.5-0.7c0,0,0,0,0,0c0.9-2,2.5-3.4,4.4-4c1.7-9.1,4.1-17.9,7.1-26.3C74.8,49,62.5,43.6,50.4,37.6    c-3.8,10.1-6.8,20.5-9.1,31.3C43.8,70.3,45.5,73.3,45.6,76.9z"/><path fill="#00c2a9" d="M78.4,17.8L78.4,17.8c4.4-2.3,9.8,0.8,10,5.8l0,0c0.2,3.3,2.6,5.9,5.8,6.4l0,0c4.9,0.8,7.4,6.4,4.7,10.6l0,0  c-1.8,2.7-1.4,6.3,0.9,8.6l0,0c3.5,3.5,2.3,9.5-2.4,11.3l0,0c-3,1.2-4.8,4.3-4.3,7.5v0c0.8,4.9-3.8,9-8.6,7.8h0  c-3.2-0.8-6.5,0.6-7.9,3.6l0,0c-2.3,4.5-8.4,5.1-11.5,1.2l0,0c-2.1-2.5-5.6-3.3-8.5-1.8l0,0c-4.4,2.3-9.8-0.8-10-5.8v0  c-0.2-3.3-2.6-5.9-5.8-6.4h0c-4.9-0.8-7.4-6.4-4.7-10.6l0,0c1.8-2.7,1.4-6.3-0.9-8.6l0,0c-3.5-3.5-2.3-9.5,2.4-11.3l0,0  c3-1.2,4.8-4.3,4.3-7.5l0,0c-0.8-4.9,3.8-9,8.6-7.8l0,0c3.2,0.8,6.5-0.6,7.9-3.6l0,0c2.3-4.5,8.4-5.1,11.5-1.2l0,0  C71.9,18.5,75.5,19.2,78.4,17.8z"/><circle cx="67.5" cy="48.3" r="24" fill="#00a58c" transform="rotate(-78.13 67.506 48.262)"/><path fill="#037c68" d="M44.6,45.5C47.3,32.5,60,24.2,73,26.9c8.8,1.9,15.5,8.3,18,16.3c-1.9-9-9-16.5-18.5-18.5  C59.5,22,46.7,30.4,44,43.3c-0.9,4.2-0.6,8.3,0.6,12.1C43.9,52.2,43.9,48.9,44.6,45.5z"/><path fill="#fff" d="M65.4,49l-4.9-7.6c-0.3-0.5-0.9-0.6-1.4-0.3L54.6,44c-0.5,0.3-0.6,0.9-0.3,1.4l9,13.7c0.3,0.5,0.9,0.6,1.4,0.3  l17.8-11.6c0.5-0.3,0.6-0.9,0.3-1.4l-2.9-4.5c-0.3-0.5-0.9-0.6-1.4-0.3l-11.7,7.6C66.3,49.6,65.7,49.4,65.4,49z"/><path fill="#ffde39" d="M22.4 49.5L23 48c.2-.4.8-.4.9 0l.6 1.5c.5 1.2 1.4 2.1 2.6 2.6l1.5.6c.4.2.4.8 0 .9L27 54.1c-1.2.5-2.1 1.4-2.6 2.6l-.6 1.5c-.2.4-.8.4-.9 0l-.6-1.5c-.5-1.2-1.4-2.1-2.6-2.6l-1.5-.6c-.4-.2-.4-.8 0-.9l1.5-.6C21 51.6 21.9 50.6 22.4 49.5zM93.4 89.5L94 88c.2-.4.8-.4.9 0l.6 1.5c.5 1.2 1.4 2.1 2.6 2.6l1.5.6c.4.2.4.8 0 .9L98 94.1c-1.2.5-2.1 1.4-2.6 2.6l-.6 1.5c-.2.4-.8.4-.9 0l-.6-1.5c-.5-1.2-1.4-2.1-2.6-2.6l-1.5-.6c-.4-.2-.4-.8 0-.9l1.5-.6C92 91.6 92.9 90.6 93.4 89.5z"/><circle cx="23" cy="77" r="2" fill="#fff"/><circle cx="106" cy="70" r="2" fill="#fff"/></svg>